<?xml version="1.0" standalone="no"?>
<!DOCTYPE svg PUBLIC "-//W3C//DTD SVG 20010904//EN"
 "http://www.w3.org/TR/2001/REC-SVG-20010904/DTD/svg10.dtd">
<svg version="1.0" xmlns="http://www.w3.org/2000/svg"
 width="1080.000000pt" height="1080.000000pt" viewBox="0 0 1080.000000 1080.000000"
 preserveAspectRatio="xMidYMid meet">

<g transform="translate(0.000000,1080.000000) scale(0.100000,-0.100000)"
fill="#000000" stroke="none">
<path d="M5030 10789 c-1147 -82 -2210 -511 -3105 -1253 -155 -128 -533 -506
-661 -661 -826 -995 -1264 -2200 -1264 -3475 0 -1275 438 -2480 1264 -3475
128 -155 506 -533 661 -661 995 -826 2200 -1264 3475 -1264 1275 0 2480 438
3475 1264 155 128 533 506 661 661 826 995 1264 2200 1264 3475 0 1275 -438
2480 -1264 3475 -128 155 -506 533 -661 661 -902 748 -1958 1172 -3125 1254
-167 11 -551 11 -720 -1z m1710 -3850 c91 -59 137 -95 247 -195 235 -215 404
-389 498 -515 11 -15 54 -71 95 -125 42 -55 91 -124 110 -154 19 -30 58 -84
87 -120 63 -77 63 -74 -4 -209 -95 -187 -290 -381 -512 -506 -96 -54 -246
-113 -258 -101 -2 2 34 25 79 51 96 55 175 106 238 153 25 19 58 43 75 55 33
25 159 142 218 202 53 56 122 154 136 194 24 72 16 100 -55 186 -36 44 -104
129 -152 189 -245 307 -565 654 -702 760 -56 44 -166 98 -188 94 -13 -2 -19
-18 -23 -58 -15 -133 -160 -328 -374 -499 -38 -31 -72 -58 -75 -61 -9 -9 -103
-75 -143 -99 l-39 -24 34 66 c28 56 45 74 123 133 200 150 297 266 399 476 83
173 84 173 186 107z m-6 -106 c95 -49 243 -181 367 -328 19 -22 74 -85 123
-140 125 -140 128 -143 258 -305 64 -80 125 -154 136 -166 11 -11 40 -48 65
-82 52 -71 52 -88 1 -183 -30 -55 -198 -233 -289 -306 -162 -130 -494 -327
-533 -316 -10 2 -30 23 -46 46 -176 253 -500 690 -515 695 -10 3 -9 -5 6 -29
11 -19 34 -59 51 -90 17 -32 37 -68 45 -80 7 -13 40 -69 73 -124 32 -55 97
-158 145 -230 47 -71 89 -136 94 -144 6 -11 2 -13 -21 -7 -17 4 -53 32 -84 65
-50 53 -105 134 -393 577 -51 78 -113 174 -140 213 -65 97 -75 121 -57 131 8
5 26 18 39 29 13 12 26 21 27 21 7 0 64 -63 64 -70 0 -4 -7 -13 -15 -20 -21
-18 -19 -30 6 -30 20 0 150 61 217 102 41 25 40 55 -1 50 -20 -3 -44 9 -88 42
-34 25 -66 46 -72 46 -7 0 -37 -12 -67 -26 -44 -21 -62 -37 -88 -80 -35 -57
-46 -61 -54 -20 -4 21 6 32 81 82 306 205 540 467 583 651 14 58 17 59 82 26z
m592 -308 c6 -5 33 -30 60 -55 27 -25 108 -98 180 -162 72 -64 171 -161 220
-215 49 -54 104 -114 122 -133 18 -19 57 -67 87 -105 l55 -71 -21 -53 c-62
-165 -199 -354 -349 -482 -116 -99 -127 -96 -30 8 52 56 119 141 149 190 30
48 81 129 112 178 92 144 91 129 21 231 -56 84 -151 180 -314 320 -31 27 -96
96 -144 154 -48 58 -109 128 -136 155 -26 28 -55 62 -65 75 l-16 25 28 -25
c16 -14 34 -29 41 -35z m-2139 -621 c24 -11 98 -73 175 -146 73 -69 171 -159
218 -199 110 -95 194 -179 420 -423 102 -110 206 -220 231 -245 78 -77 147
-177 165 -238 22 -76 16 -202 -14 -259 -30 -59 -37 -62 -497 -169 -55 -13
-125 -29 -155 -35 -82 -18 -179 -50 -232 -76 -26 -13 -50 -24 -52 -24 -3 0 2
19 11 43 25 63 24 256 -1 322 -33 87 -100 175 -252 330 -162 164 -163 154 -3
-20 106 -116 157 -184 205 -275 27 -52 29 -62 29 -180 0 -184 -33 -261 -115
-276 -34 -5 -34 -5 -10 8 39 21 78 111 96 220 15 89 15 100 -1 147 -19 58 -53
108 -145 211 -37 41 -131 154 -210 250 -79 96 -146 177 -149 180 -3 3 -24 25
-45 50 -22 25 -87 97 -146 160 -58 63 -128 140 -156 170 -27 30 -56 61 -65 70
-9 8 -56 62 -104 120 -196 233 -246 267 -294 203 -11 -16 -21 -23 -21 -17 -1
30 37 57 86 61 44 4 53 2 90 -29 23 -18 90 -90 149 -160 59 -71 109 -128 111
-128 14 0 -140 206 -206 277 l-41 43 98 0 c141 1 362 19 593 50 92 12 188 5
237 -16z m-2429 -89 c2 -2 -33 -6 -77 -10 -44 -4 -84 -12 -90 -19 -6 -7 21
-44 86 -116 128 -142 239 -273 293 -349 237 -330 388 -517 555 -689 l129 -134
46 5 c297 31 324 31 698 1 101 -8 185 -14 188 -14 2 0 4 -3 4 -7 0 -5 -150 -8
-332 -9 -319 -1 -426 -8 -558 -40 -22 -5 -33 3 -79 55 -29 34 -89 89 -134 123
-207 156 -409 355 -519 513 -19 28 -72 118 -118 200 -142 257 -211 347 -332
434 -27 19 -48 38 -48 42 0 19 266 32 288 14z m195 8 c-23 -2 -64 -2 -90 0
-26 2 -7 3 42 3 50 0 71 -1 48 -3z m392 -18 c205 -19 283 -30 291 -38 10 -10
-20 -8 -191 8 -82 8 -204 20 -270 25 -66 6 -127 12 -135 14 -43 10 166 4 305
-9z m-60 -57 c369 -33 396 -36 401 -41 3 -2 -9 -9 -25 -15 -42 -15 -58 -51
-41 -92 20 -47 59 -70 123 -70 36 0 59 -5 67 -15 6 -8 21 -17 33 -21 29 -9
147 -81 177 -109 14 -12 32 -25 41 -28 39 -13 190 -130 204 -157 9 -17 14 -30
12 -30 -2 0 -24 16 -48 35 -24 19 -49 35 -55 35 -6 0 -17 7 -24 15 -13 15
-264 155 -279 155 -2 0 6 -11 19 -25 13 -14 28 -25 33 -25 12 0 143 -99 227
-171 253 -218 445 -471 464 -613 l6 -49 -113 7 c-61 3 -151 9 -199 12 l-87 6
20 27 c52 70 -49 141 -202 141 -91 0 -128 -35 -98 -92 19 -35 -13 -16 -38 23
-54 83 -48 79 -116 72 -45 -5 -68 -13 -87 -30 -14 -13 -33 -26 -42 -29 -27 -8
-22 -27 5 -20 12 3 31 9 43 12 15 4 23 -1 32 -21 16 -35 15 -55 -3 -55 -27 0
-16 -29 13 -32 21 -3 17 -6 -21 -12 l-48 -8 -102 107 c-164 174 -307 345 -484
580 -191 252 -317 406 -397 485 -31 30 -56 58 -56 62 0 21 324 14 645 -14z
m5111 -264 c79 -64 146 -119 149 -124 12 -20 -156 -88 -285 -114 -41 -8 -97
-22 -125 -30 -94 -27 -102 -27 -108 -8 -2 9 -8 24 -11 33 -5 12 -1 18 16 22
13 3 73 19 133 37 161 46 177 49 212 50 17 0 35 5 38 10 10 15 -60 101 -121
150 -63 50 -144 109 -179 130 -22 13 -41 24 -43 25 -1 1 2 14 8 29 l10 26 81
-60 c45 -33 146 -113 225 -176z m-4565 129 c5 -14 8 -28 5 -30 -4 -5 -36 50
-36 62 0 14 22 -9 31 -32z m4272 5 c101 -70 255 -213 244 -225 -3 -2 -20 -8
-39 -12 -18 -5 -44 -11 -58 -16 l-25 -7 23 21 c12 12 22 26 22 31 0 25 -26 60
-55 76 -29 15 -44 16 -131 7 -55 -6 -101 -9 -103 -7 -10 9 70 154 85 154 3 0
20 -10 37 -22z m-5412 -417 c21 -46 55 -106 75 -135 l37 -51 -38 35 c-63 59
-264 300 -299 358 -4 7 -10 28 -13 45 -4 30 2 26 97 -68 88 -86 107 -111 141
-184z m5409 234 c7 -8 8 -15 2 -15 -5 0 -15 7 -22 15 -7 8 -8 15 -2 15 5 0 15
-7 22 -15z m33 -52 c-7 -2 -19 -2 -25 0 -7 3 -2 5 12 5 14 0 19 -2 13 -5z
m-18 -58 c-100 -34 -119 -35 -123 -6 -3 19 0 23 16 19 10 -3 37 -2 58 2 21 4
57 8 79 8 38 1 36 0 -30 -23z m388 -79 c6 -14 -3 -18 -303 -110 -108 -33 -281
-77 -360 -91 -46 -9 -316 -73 -355 -84 -76 -23 -79 -22 -28 12 55 37 120 56
403 117 282 61 583 141 636 169 1 1 4 -5 7 -13z m27 -130 c0 -38 -12 -46 -68
-46 -31 0 -69 -4 -86 -10 -17 -5 -76 -23 -131 -41 -55 -17 -120 -37 -145 -44
-25 -7 -110 -36 -190 -63 -272 -94 -459 -151 -498 -152 -9 0 -12 10 -10 27 3
22 11 29 63 45 250 78 325 102 360 115 68 26 256 76 435 117 95 21 211 53 217
60 12 12 53 6 53 -8z m-5870 -176 c35 -41 67 -77 70 -80 8 -6 203 -230 276
-315 28 -33 79 -98 114 -145 35 -47 69 -88 74 -92 6 -4 7 -8 2 -8 -23 0 -246
203 -351 320 -51 56 -163 201 -200 258 -28 43 -69 145 -55 140 4 -2 35 -37 70
-78z m5070 25 c0 -4 -129 -47 -240 -80 -25 -7 -60 -18 -77 -24 -26 -7 -33 -7
-33 4 0 12 76 40 175 64 22 5 63 16 90 24 53 15 85 20 85 12z m735 -51 c-19
-51 -42 -65 -145 -91 -30 -8 -71 -19 -90 -24 -19 -6 -54 -14 -78 -19 -23 -5
-84 -20 -135 -34 -50 -13 -119 -29 -152 -36 -33 -7 -73 -16 -90 -20 -16 -5
-64 -14 -105 -20 -41 -6 -95 -15 -120 -20 -103 -20 -260 -42 -272 -37 -7 3 -3
6 9 6 12 1 57 10 100 20 43 11 110 27 148 36 178 42 230 55 373 94 147 40 168
47 239 77 17 8 34 14 37 14 3 0 29 11 58 25 28 14 86 34 127 46 42 12 83 25
91 29 23 13 24 4 5 -46z m-575 -95 c-35 -15 -371 -99 -390 -98 -21 1 9 12 100
39 41 12 95 29 120 37 25 9 72 19 105 23 85 10 93 10 65 -1z m540 -43 c0 -22
-5 -25 -57 -31 -32 -3 -91 -11 -131 -17 -40 -6 -75 -9 -77 -6 -3 2 46 17 108
32 61 15 119 32 127 37 24 14 30 11 30 -15z m-970 -66 c-14 -4 -34 -8 -45 -8
-16 0 -15 2 5 8 14 4 34 8 45 8 16 0 15 -2 -5 -8z m-80 -20 c-8 -5 -24 -10
-35 -10 -17 0 -17 2 -5 10 8 5 24 10 35 10 17 0 17 -2 5 -10z m1068 -9 c-5
-24 -54 -26 -67 -3 -9 18 -7 19 30 19 31 0 39 -3 37 -16z m-4641 3 c-3 -3 -12
-4 -19 -1 -8 3 -5 6 6 6 11 1 17 -2 13 -5z m289 -41 c-4 -4 -11 -1 -16 7 -16
25 -11 35 7 17 9 -9 13 -20 9 -24z m41 -25 c-3 -8 -6 -5 -6 6 -1 11 2 17 5 13
3 -3 4 -12 1 -19z m-320 -34 c-3 -3 -12 -4 -19 -1 -8 3 -5 6 6 6 11 1 17 -2
13 -5z m183 -14 c0 -5 -9 -10 -20 -10 -11 0 -20 5 -20 10 0 6 9 10 20 10 11 0
20 -4 20 -10z m3325 -20 c-81 -22 -231 -60 -238 -60 -5 0 -7 8 -5 17 3 14 24
22 98 35 52 9 113 16 135 16 39 0 39 0 10 -8z m-2713 -165 c-2 -11 -6 -22 -8
-24 -4 -4 -79 2 -362 29 -100 10 -212 2 -347 -25 -177 -35 -176 -35 -169 -11
4 12 8 23 9 24 12 13 357 29 595 28 279 -1 285 -1 282 -21z m-560 -75 l-4 -30
-147 1 c-80 1 -135 4 -121 6 14 2 59 11 100 20 76 16 146 29 166 32 6 0 9 -11
6 -29z m188 -64 c0 -2 -17 -15 -37 -29 -36 -24 -47 -25 -228 -32 -104 -4 -221
-13 -258 -21 -38 -8 -72 -14 -77 -14 -18 0 23 68 44 74 12 3 107 6 211 7 105
1 217 5 250 9 81 10 95 11 95 6z m-881 -156 c39 -22 73 -45 76 -51 4 -5 24
-21 45 -34 37 -23 43 -24 112 -15 40 5 120 9 178 8 l105 -1 -87 -8 c-94 -9
-162 -20 -249 -40 l-56 -13 -94 76 c-86 70 -192 172 -214 207 -4 8 19 -9 53
-37 34 -28 93 -69 131 -92z m1057 44 c-3 -9 -6 -23 -6 -33 0 -15 -19 -19 -147
-30 -191 -15 -470 -31 -553 -30 -80 0 -57 11 60 28 190 26 300 42 395 56 106
15 156 21 219 23 31 2 37 -1 32 -14z m841 -100 c-3 -3 -12 -4 -19 -1 -8 3 -5
6 6 6 11 1 17 -2 13 -5z m-662 -13 c11 -20 -25 -26 -225 -43 -182 -14 -372
-38 -555 -67 -33 -6 -91 -15 -130 -21 -70 -10 -226 -48 -234 -56 -2 -2 -12 8
-22 24 -10 15 -25 36 -33 47 -10 13 -12 25 -6 34 7 12 14 9 40 -12 17 -15 37
-27 43 -27 18 0 153 17 332 40 310 41 629 78 767 89 9 0 19 -3 23 -8z m-60
-96 c-22 -8 -53 -14 -68 -14 -16 -1 -47 -5 -70 -10 -23 -5 -116 -15 -207 -21
-178 -12 -246 -21 -412 -52 -91 -17 -300 -72 -348 -92 -11 -5 -15 1 -16 23 -1
24 4 30 25 34 14 2 80 16 146 30 66 14 192 35 280 46 88 12 189 25 225 31 150
23 291 37 385 38 96 0 98 -1 60 -13z"/>
<path d="M6728 6714 c-35 -18 -146 -148 -165 -192 -16 -38 -12 -59 19 -92 19
-20 19 -23 4 -17 -48 19 -94 19 -137 0 -25 -11 -51 -26 -59 -34 -8 -8 -32 -28
-53 -43 -75 -57 -87 -120 -33 -171 39 -36 88 -47 135 -30 24 8 106 75 182 147
27 25 34 64 17 91 -15 22 -15 22 38 22 38 0 60 6 81 21 44 33 109 117 128 168
15 39 16 50 5 77 -25 60 -103 86 -162 53z m13 -145 c23 -11 39 -23 36 -26 -8
-7 -97 28 -97 38 0 14 18 11 61 -12z m-236 -282 c19 -11 19 -12 -7 -15 -25 -3
-88 22 -88 34 0 9 71 -6 95 -19z"/>
<path d="M7118 6415 c18 -22 73 -95 124 -163 50 -67 93 -120 95 -118 14 14
-83 153 -171 246 -65 69 -94 89 -48 35z"/>
<path d="M6645 6031 c-91 -41 -147 -131 -147 -236 0 -77 24 -135 83 -195 96
-98 199 -119 319 -66 112 49 170 128 170 231 0 156 -145 285 -318 285 -43 0
-81 -7 -107 -19z m261 -44 c131 -82 175 -263 89 -365 -27 -32 -120 -81 -170
-89 -20 -3 -61 3 -102 15 -122 38 -185 119 -191 247 -4 86 22 142 89 194 l44
33 100 -4 c86 -4 106 -8 141 -31z"/>
<path d="M6705 5948 c-37 -13 -82 -53 -101 -91 -29 -54 -15 -155 28 -208 24
-30 78 -50 121 -47 l42 3 -41 13 c-60 18 -111 61 -130 109 -22 56 -6 117 42
164 27 26 43 33 88 37 73 6 117 -3 146 -30 20 -18 23 -19 17 -4 -4 10 -7 20
-7 22 0 3 -21 14 -46 24 -49 22 -111 25 -159 8z"/>
<path d="M7441 5741 c-106 -113 -129 -159 -102 -209 8 -15 3 -17 -39 -14 -52
4 -70 -4 -142 -58 -54 -41 -78 -77 -78 -117 0 -32 17 -52 65 -77 l30 -16 -29
0 c-17 0 -41 11 -62 30 -48 42 -73 46 -129 18 -36 -17 -57 -37 -82 -75 -35
-57 -26 -70 18 -29 l27 25 28 -30 c24 -25 27 -32 16 -49 -7 -11 -12 -22 -12
-25 0 -15 49 0 127 41 85 44 117 69 108 84 -3 4 8 10 23 13 15 3 67 40 115 82
69 61 87 82 87 104 0 15 -5 32 -12 39 -9 9 0 12 40 12 45 0 57 4 87 33 43 40
105 143 105 175 0 13 -13 37 -29 53 -24 24 -38 29 -76 29 -42 0 -52 -4 -84
-39z m64 -108 c19 -13 18 -14 -10 -7 -16 3 -36 12 -44 20 -12 11 -10 12 10 7
13 -3 33 -12 44 -20z m-224 -239 c6 -8 8 -14 3 -14 -15 0 -74 24 -74 30 0 12
59 -2 71 -16z"/>
<path d="M5196 5409 c19 -63 37 -126 40 -142 11 -47 27 -44 19 4 -8 50 -71
229 -85 243 -5 5 7 -42 26 -105z"/>
<path d="M5244 5435 c4 -11 19 -63 33 -115 24 -94 53 -149 53 -104 0 26 -69
215 -83 229 -7 7 -8 4 -3 -10z"/>
<path d="M6006 4613 c8 -25 14 -71 14 -102 0 -40 3 -52 10 -41 15 23 12 103
-5 143 -22 53 -35 54 -19 0z"/>
<path d="M2935 5719 c-71 -44 -77 -53 -32 -45 21 4 45 10 53 13 8 3 17 -5 24
-21 22 -58 22 -71 -1 -81 -48 -22 -22 -30 110 -33 109 -2 137 0 151 13 15 14
21 14 52 1 22 -10 79 -16 157 -18 119 -3 123 -2 142 21 13 15 17 32 13 50 -8
35 -69 90 -108 95 -17 3 -63 9 -101 15 -86 13 -138 1 -162 -36 -14 -21 -15
-30 -5 -56 28 -73 -27 -34 -67 47 l-32 66 -72 0 c-63 0 -78 -4 -122 -31z m501
-71 c8 -16 13 -32 11 -34 -7 -7 -47 47 -47 63 0 21 18 6 36 -29z"/>
<path d="M3495 5306 c-86 -26 -109 -123 -48 -209 100 -144 465 -223 554 -120
52 58 43 101 -38 192 -45 50 -74 72 -128 97 -110 50 -252 67 -340 40z"/>
<path d="M3206 5130 c18 -34 117 -160 122 -155 3 2 -7 22 -21 42 -27 41 -115
138 -101 113z"/>
<path d="M4290 4698 c-62 -33 -19 -130 62 -142 83 -12 196 -10 212 3 37 30 10
93 -53 125 -40 21 -189 30 -221 14z m140 -70 c0 -6 -7 -5 -15 2 -8 7 -15 17
-15 22 0 6 7 5 15 -2 8 -7 15 -17 15 -22z m37 -44 c-3 -3 -12 -4 -19 -1 -8 3
-5 6 6 6 11 1 17 -2 13 -5z"/>
</g>
</svg>
