<svg width="494" height="669" viewBox="0 0 494 669" fill="none" xmlns="http://www.w3.org/2000/svg">
<path d="M350.578 1.36095C304.649 6.91364 262.465 37.06 242.351 78.6529C218.005 128.921 225.807 188.842 209.491 242.272C188.291 311.571 129.657 361.893 91.0663 423.144C45.0652 496.141 28.3258 583.303 12.5107 668.119C1.9968 724.455 -8.27862 784.246 12.2271 837.766C40.2289 910.831 129.118 954.124 203.855 931.194C330.673 892.286 365.614 714.364 487.237 661.38C550.246 633.932 629.4 644.152 682.036 599.912C744.337 547.487 735.013 450.266 716.517 370.98C702.456 310.643 686.291 250.821 670.177 190.997C657.076 142.565 642.784 91.8902 607.981 55.706C565.019 11.0436 531.003 28.7534 480.244 28.8975C435.472 28.9482 399.597 -4.57635 350.578 1.36095Z" fill="#0339FF"/>
</svg>
