<?xml version="1.0" encoding="UTF-8" standalone="no"?>
<svg
   xmlns:dc="http://purl.org/dc/elements/1.1/"
   xmlns:cc="http://creativecommons.org/ns#"
   xmlns:rdf="http://www.w3.org/1999/02/22-rdf-syntax-ns#"
   xmlns:svg="http://www.w3.org/2000/svg"
   xmlns="http://www.w3.org/2000/svg"
   xmlns:sodipodi="http://sodipodi.sourceforge.net/DTD/sodipodi-0.dtd"
   xmlns:inkscape="http://www.inkscape.org/namespaces/inkscape"
   width="729.92584"
   height="1200"
   viewBox="0 0 729.92584 1200"
   fill="none"
   version="1.1"
   id="svg4"
   sodipodi:docname="bg3.svg"
   inkscape:version="1.0.2-2 (e86c870879, 2021-01-15)">
  <metadata
     id="metadata10">
    <rdf:RDF>
      <cc:Work
         rdf:about="">
        <dc:format>image/svg+xml</dc:format>
        <dc:type
           rdf:resource="http://purl.org/dc/dcmitype/StillImage" />
        <dc:title></dc:title>
      </cc:Work>
    </rdf:RDF>
  </metadata>
  <defs
     id="defs8" />
  <sodipodi:namedview
     pagecolor="#ffffff"
     bordercolor="#666666"
     borderopacity="1"
     objecttolerance="10"
     gridtolerance="10"
     guidetolerance="10"
     inkscape:pageopacity="0"
     inkscape:pageshadow="2"
     inkscape:window-width="1920"
     inkscape:window-height="1051"
     id="namedview6"
     showgrid="false"
     fit-margin-top="0"
     fit-margin-left="0"
     fit-margin-right="0"
     fit-margin-bottom="0"
     inkscape:zoom="0.47930283"
     inkscape:cx="-503.36773"
     inkscape:cy="686.67519"
     inkscape:window-x="-9"
     inkscape:window-y="-9"
     inkscape:window-maximized="1"
     inkscape:current-layer="svg4" />
  <path
     d="m 592.43436,230.20487 c -45.929,5.55269 -88.113,35.69905 -108.227,77.29195 -24.346,50.26809 -16.544,110.18909 -32.86,163.61909 -21.2,69.299 -79.834,119.621 -118.4247,180.872 -46.0011,72.997 -62.7405,160.159 -78.5556,244.975 -10.5139,56.336 -20.78932,116.12699 -0.2836,169.64699 28.0018,73.065 116.8909,116.358 191.6279,93.428 126.818,-38.908 161.759,-216.82999 283.382,-269.81399 63.009,-27.448 142.163,-17.228 194.79904,-61.468 62.3009,-52.425 52.9769,-149.646 34.4809,-228.932 -14.0609,-60.337 -30.2259,-120.159 -46.3399,-179.983 -13.101,-48.432 -27.39304,-99.10679 -62.19604,-135.29099 -42.962,-44.6624 -76.978,-26.9526 -127.737,-26.8085 -44.772,0.0507 -80.647,-33.47385 -129.666,-27.53655 z"
     fill="#0339FF"
     id="path2" />
</svg>
