<svg width="297" height="624" viewBox="0 0 297 624" fill="none" xmlns="http://www.w3.org/2000/svg">
<path d="M119.539 161.987C106.646 183.568 105.566 211.721 116.745 234.199C130.244 261.381 158.584 277.962 176.113 302.747C198.835 334.908 200.951 376.841 214.43 413.797C230.49 457.845 262.371 494.032 293.551 529.042C314.259 552.3 336.53 576.605 366.346 585.598C407.054 597.873 455.224 574.084 470.235 534.345C495.705 466.914 430.884 392.714 448.578 322.833C457.745 286.63 488.468 256.021 486.97 218.69C485.171 174.482 440.298 146.147 400.08 127.718C369.478 113.687 338.398 100.733 307.334 87.7552C282.167 77.2728 255.64 66.5556 228.516 69.4721C195.035 73.0733 191.328 93.5796 174.505 115.436C159.633 134.689 133.295 138.951 119.539 161.987Z" fill="#0339FF"/>
</svg>
